<?xml version="1.0" encoding="UTF-8"?>
<svg xmlns="http://www.w3.org/2000/svg" width="221" height="90" viewBox="0 0 221 90" fill="none">
  <path d="M129.505 36.0152H119.932C118.138 36.0802 116.393 35.4211 115.09 34.1866C113.805 32.9411 113.11 31.2074 113.18 29.419C113.038 25.8353 115.828 22.8159 119.411 22.6739C119.583 22.667 119.756 22.667 119.929 22.6739H131.47V19.1055H119.932C116.911 19.1055 114.437 20.0249 112.51 21.8632C110.583 23.7021 109.618 26.1205 109.615 29.1192C109.615 32.1393 110.59 34.638 112.54 36.6148C114.489 38.5915 116.957 39.5788 119.943 39.576H133.525C127.889 52.211 113.079 57.885 100.444 52.2498C90.1375 47.6532 84.1768 36.7318 85.8876 25.5763H82.304C82.1336 26.8254 82.0471 28.0841 82.0449 29.3449C82.0344 45.144 94.8344 57.9598 110.633 57.9695C122.489 57.9771 133.12 50.6719 137.364 39.6023C137.812 38.4385 138.183 37.2462 138.474 36.0339H129.505V36.0152Z" fill="#6D6E71"></path>
  <path d="M110.655 0.734412C98.8069 0.744798 88.1871 8.04651 83.9368 19.1057C83.4882 20.2696 83.1169 21.4618 82.8262 22.6742H96.9811V39.6026H100.52V22.6742H108.586V19.1057H87.8009C93.4694 6.48383 108.297 0.846576 120.919 6.51499C131.176 11.1213 137.107 21.9963 135.428 33.1137H139.011C141.116 17.4779 130.149 3.09608 114.513 0.989896C113.234 0.817496 111.946 0.732335 110.655 0.734412Z" fill="#004592"></path>
  <path d="M18.7278 73.5553H11.3243V89.0768H8.07764V73.5553H0.648438V70.2832H18.7278V73.5553Z" fill="#004592"></path>
  <path d="M37.1945 89.0768H20.9551V70.2832H37.1945V73.5553H24.2384V85.8006H37.1945V89.0768ZM36.3396 81.1769H25.6044V77.9048H36.3396V81.1769Z" fill="#004592"></path>
  <path d="M60.9413 83.2833C60.9994 84.929 60.2997 86.5104 59.0415 87.5738C57.7606 88.6083 56.1489 89.1455 54.5044 89.0874H40.1633V85.8007H54.5044C55.3244 85.8208 56.1349 85.6117 56.8439 85.1969C57.5468 84.7739 57.9697 84.0075 57.9538 83.187C57.9697 82.3693 57.523 81.6133 56.7981 81.2325C56.0967 80.8323 55.2979 80.6322 54.4893 80.655H45.6415C44.1591 80.7035 42.7058 80.2264 41.5405 79.3077C39.4204 77.4833 39.181 74.2859 41.0038 72.1659C41.1695 71.9741 41.3487 71.7955 41.5405 71.63C42.7058 70.7112 44.1591 70.2342 45.6415 70.2827H59.8163V73.5555H45.6415C45.0659 73.5396 44.502 73.7237 44.0468 74.0768C43.6128 74.4119 43.3656 74.9354 43.3837 75.4837C43.3579 76.0328 43.6067 76.5583 44.0468 76.8865C44.5089 77.2236 45.0705 77.3981 45.6415 77.3829H54.5044C56.1585 77.3268 57.7753 77.8842 59.0415 78.9483C60.3003 80.0298 60.9994 81.625 60.9413 83.2833Z" fill="#004592"></path>
  <path d="M80.7318 73.5553H73.3284V89.0768H70.0818V73.5553H62.6484V70.2832H80.7318V73.5553Z" fill="#004592"></path>
  <path d="M102.608 89.0764H91.9847C89.2529 89.0764 86.9921 88.168 85.2032 86.3519C83.4142 84.5358 82.5195 82.2427 82.5195 79.4739C82.5195 76.7204 83.4044 74.4993 85.1733 72.8113C86.943 71.1233 89.2134 70.2793 91.9847 70.2793H102.608V73.5514H91.9847C88.6941 73.4199 85.9196 75.9809 85.7882 79.2724C85.782 79.431 85.782 79.5896 85.7882 79.7481C85.7252 81.3883 86.36 82.978 87.535 84.1232C88.7323 85.2538 90.332 85.8576 91.9773 85.8001H102.601L102.608 89.0764Z" fill="#6D6E71"></path>
  <path d="M129.468 79.4739C129.468 82.2427 128.577 84.5358 126.796 86.3519C125.014 88.168 122.749 89.0764 119.999 89.0764H114.743C112.011 89.0764 109.75 88.168 107.961 86.3519C106.172 84.5358 105.277 82.2427 105.277 79.4739C105.277 76.7204 106.162 74.4993 107.932 72.8113C109.701 71.1233 111.971 70.2793 114.743 70.2793H119.999C122.79 70.2793 125.065 71.1233 126.825 72.8113C128.585 74.4993 129.466 76.7204 129.468 79.4739ZM126.218 79.7481C126.275 78.0892 125.643 76.4815 124.471 75.3059C123.282 74.1379 121.665 73.5106 119.999 73.5701H114.743C111.452 73.4427 108.68 76.0072 108.553 79.2988C108.547 79.4532 108.547 79.6083 108.553 79.7627C108.489 81.4029 109.124 82.9939 110.3 84.1384C111.498 85.2691 113.097 85.8728 114.743 85.8153H119.999C121.654 85.8763 123.264 85.2725 124.471 84.1384C125.652 82.9905 126.287 81.3932 126.218 79.7481Z" fill="#6D6E71"></path>
  <path d="M152.942 79.4744C152.942 82.2432 152.048 84.5363 150.258 86.3524C148.469 88.1684 146.209 89.0768 143.477 89.0768H132.879V70.2832H143.477C146.246 70.2832 148.516 71.1272 150.288 72.8152C152.06 74.5032 152.944 76.7229 152.942 79.4744ZM149.666 79.7486C149.796 76.4577 147.233 73.6848 143.941 73.556C143.787 73.5498 143.631 73.5498 143.477 73.5553H136.132V85.8006H143.48C145.126 85.858 146.726 85.2543 147.923 84.1243C149.098 82.9785 149.732 81.3881 149.666 79.7486Z" fill="#6D6E71"></path>
  <path d="M171.845 89.0768H155.609V70.2832H171.845V73.5553H158.889V85.8006H171.845V89.0768ZM170.994 81.1769H160.258V77.9048H170.994V81.1769Z" fill="#6D6E71"></path>
  <path d="M197.522 89.0768H192.68L187.424 83.7948H180.35V80.5482H189.156C190.231 80.5836 191.293 80.3059 192.213 79.7486C193.122 79.1718 193.656 78.1554 193.616 77.0795C193.616 74.7275 192.136 73.5533 189.175 73.5553H178.439V89.0768H175.148V70.2832H188.634C191.055 70.2832 193.01 70.8053 194.497 71.8493C196.2 73.0437 197.053 74.7954 197.055 77.1058C197.086 78.5999 196.559 80.0518 195.575 81.1776C194.583 82.284 193.275 83.0588 191.828 83.3987L197.522 89.0768Z" fill="#6D6E71"></path>
  <path d="M220.665 83.2824C220.725 84.9275 220.027 86.5095 218.77 87.573C217.488 88.6005 215.881 89.1336 214.239 89.0754H199.891V85.7998H214.239C215.06 85.8206 215.87 85.6115 216.579 85.1961C217.288 84.7772 217.719 84.0101 217.707 83.1861C217.723 82.3678 217.274 81.6103 216.549 81.2316C215.846 80.8307 215.047 80.6306 214.239 80.6542H205.355C203.881 80.6957 202.441 80.2187 201.283 79.3068C199.163 77.4797 198.925 74.2795 200.753 72.1595C200.916 71.9698 201.093 71.7925 201.283 71.6291C202.441 70.7173 203.881 70.2403 205.355 70.2818H219.529V73.5546H205.355C204.779 73.5394 204.215 73.7236 203.76 74.076C203.326 74.4111 203.079 74.9345 203.097 75.4829C203.07 76.0319 203.319 76.5574 203.76 76.8856C204.222 77.2228 204.783 77.3973 205.355 77.382H214.239C215.894 77.3259 217.512 77.8833 218.781 78.9475C220.034 80.0317 220.728 81.6262 220.665 83.2824Z" fill="#6D6E71"></path>
</svg>
