<?xml version="1.0" encoding="UTF-8"?>
<svg xmlns="http://www.w3.org/2000/svg" width="276" height="55" viewBox="0 0 276 55" fill="none">
  <path d="M249.771 54.2127C235.438 54.2127 223.779 42.2374 223.779 27.5176C223.779 12.7975 235.438 0.822266 249.771 0.822266C264.103 0.822266 275.762 12.7975 275.762 27.5176C275.762 42.2374 264.103 54.2127 249.771 54.2127ZM249.771 5.54681C237.975 5.54681 228.379 15.4025 228.379 27.5176C228.379 39.6318 237.975 49.4882 249.771 49.4882C261.567 49.4882 271.163 39.6318 271.163 27.5176C271.163 15.4025 261.567 5.54681 249.771 5.54681Z" fill="#FD3A0C"></path>
  <path d="M239.344 40.6019C238.751 40.6019 238.158 40.3693 237.705 39.9037C236.801 38.9731 236.801 37.4637 237.705 36.5331L246.725 27.2538L237.705 17.9752C236.801 17.0449 236.801 15.5354 237.705 14.6048C238.611 13.6734 240.079 13.6734 240.981 14.6048L251.638 25.569C252.542 26.4996 252.542 28.0089 251.638 28.9395L240.981 39.9037C240.529 40.3693 239.936 40.6019 239.344 40.6019Z" fill="#FD3A0C"></path>
  <path d="M251.579 40.6019C250.985 40.6019 250.392 40.3693 249.941 39.9037C249.035 38.9731 249.035 37.4637 249.941 36.5331L258.958 27.2538L249.941 17.9752C249.035 17.0449 249.035 15.5354 249.941 14.6048C250.845 13.6734 252.312 13.6734 253.216 14.6048L263.872 25.569C264.778 26.4996 264.778 28.0089 263.872 28.9395L253.216 39.9037C252.765 40.3693 252.172 40.6019 251.579 40.6019Z" fill="#FD3A0C"></path>
  <path d="M11.2389 41.4527C9.25305 41.4527 7.47339 41.1211 5.90051 40.4595C4.3269 39.797 3.06299 38.817 2.10864 37.5189C1.18079 36.2209 0.690552 34.6588 0.638672 32.831H7.67981C7.78271 33.864 8.13062 34.6588 8.72388 35.2147C9.31726 35.7446 10.0913 36.0098 11.0452 36.0098C12.0254 36.0098 12.7994 35.7844 13.3667 35.3334C13.9336 34.8571 14.2177 34.2078 14.2177 33.3868C14.2177 32.6984 13.985 32.1287 13.5212 31.6785C13.0829 31.2282 12.5284 30.8575 11.858 30.5657C11.2126 30.2747 10.2847 29.9431 9.07288 29.5725C7.31885 29.0166 5.88745 28.4599 4.77808 27.9039C3.66956 27.3471 2.71533 26.5262 1.91541 25.4405C1.11572 24.3546 0.716675 22.9372 0.716675 21.189C0.716675 18.593 1.63171 16.5668 3.46313 15.1102C5.29419 13.6268 7.67981 12.8848 10.6191 12.8848C13.6113 12.8848 16.0226 13.6268 17.854 15.1102C19.6848 16.5668 20.665 18.6068 20.7935 21.2288H13.6372C13.5859 20.3281 13.2631 19.626 12.6699 19.1229C12.0768 18.593 11.3159 18.3281 10.3879 18.3281C9.58789 18.3281 8.94348 18.5531 8.45325 19.0042C7.96326 19.4277 7.71863 20.0502 7.71863 20.8712C7.71863 21.7716 8.13062 22.4739 8.95654 22.9768C9.78137 23.4801 11.0712 24.0231 12.8246 24.6058C14.5784 25.2153 15.9966 25.798 17.0801 26.354C18.1896 26.9108 19.1437 27.7186 19.9427 28.7776C20.7423 29.8376 21.1425 31.2012 21.1425 32.8707C21.1425 34.4597 20.7423 35.9032 19.9427 37.2012C19.1689 38.4991 18.0342 39.532 16.5385 40.3002C15.0427 41.0683 13.2762 41.4527 11.2389 41.4527Z" fill="#1D1D1D"></path>
  <path d="M48.0367 45.9424L44.5559 41.1348C43.5242 41.3463 42.5182 41.4527 41.5377 41.4527C38.9851 41.4527 36.6377 40.8431 34.4968 39.6248C32.3822 38.4064 30.6931 36.7109 29.4297 34.5394C28.1915 32.3407 27.5723 29.8773 27.5723 27.1489C27.5723 24.4203 28.1915 21.9707 29.4297 19.7982C30.6931 17.6266 32.3822 15.9312 34.4968 14.7128C36.6377 13.4945 38.9851 12.8848 41.5377 12.8848C44.0916 12.8848 46.4252 13.4945 48.54 14.7128C50.6807 15.9312 52.3567 17.6266 53.5692 19.7982C54.8073 21.9707 55.4258 24.4203 55.4258 27.1489C55.4258 29.5328 54.9486 31.7182 53.9944 33.7046C53.0662 35.665 51.7633 37.2939 50.0876 38.5917L56.0448 45.9424H48.0367ZM34.3429 27.1489C34.3429 29.6124 34.9871 31.5859 36.2769 33.0691C37.592 34.5256 39.3459 35.2546 41.5377 35.2546C43.704 35.2546 45.433 34.5126 46.7218 33.0292C48.0367 31.546 48.6945 29.5855 48.6945 27.1489C48.6945 24.6855 48.0367 22.725 46.7218 21.2686C45.433 19.7853 43.704 19.0432 41.5377 19.0432C39.3459 19.0432 37.592 19.7722 36.2769 21.2288C34.9871 22.686 34.3429 24.6586 34.3429 27.1489Z" fill="#1D1D1D"></path>
  <path d="M69.1619 13.2832V29.9708C69.1619 31.6394 69.5619 32.9244 70.3616 33.825C71.1605 34.7254 72.3342 35.1758 73.8816 35.1758C75.4293 35.1758 76.6149 34.7254 77.4408 33.825C78.266 32.9244 78.6785 31.6394 78.6785 29.9708V13.2832H85.2937V29.931C85.2937 32.4213 84.7777 34.5272 83.7462 36.2486C82.7147 37.97 81.3219 39.2681 79.5679 40.1425C77.8398 41.0162 75.9062 41.4536 73.7655 41.4536C71.6248 41.4536 69.7032 41.0292 68.0015 40.1823C66.3254 39.3077 64.9966 38.0098 64.0172 36.2885C63.0371 34.5402 62.5469 32.4213 62.5469 29.931V13.2832H69.1619Z" fill="#1D1D1D"></path>
  <path d="M100.037 18.7264V24.3685H108.895V29.6133H100.037V35.7319H110.057V41.1749H93.4219V13.2832H110.057V18.7264H100.037Z" fill="#1D1D1D"></path>
  <path d="M131.682 41.1755L126.034 30.6463H124.447V41.1755H117.832V13.2832H128.935C131.075 13.2832 132.893 13.6676 134.39 14.4355C135.911 15.2037 137.046 16.2636 137.794 17.6143C138.541 18.9384 138.915 20.4216 138.915 22.0643C138.915 23.9182 138.4 25.5738 137.368 27.0311C136.362 28.4875 134.867 29.5205 132.88 30.1302L139.148 41.1755H131.682ZM124.447 25.8387H128.548C129.76 25.8387 130.662 25.5339 131.255 24.925C131.875 24.3157 132.185 23.455 132.185 22.3423C132.185 21.2825 131.875 20.4483 131.255 19.8389C130.662 19.2302 129.76 18.9254 128.548 18.9254H124.447V25.8387Z" fill="#1D1D1D"></path>
  <rect x="146.549" y="13.2832" width="6.61512" height="27.8924" fill="#1D1D1D"></rect>
  <path d="M171.266 41.4527C169.281 41.4527 167.5 41.1211 165.928 40.4595C164.355 39.797 163.091 38.817 162.136 37.5189C161.208 36.2209 160.718 34.6588 160.666 32.831H167.707C167.81 33.864 168.158 34.6588 168.751 35.2147C169.345 35.7446 170.119 36.0098 171.073 36.0098C172.053 36.0098 172.827 35.7844 173.394 35.3334C173.961 34.8571 174.245 34.2078 174.245 33.3868C174.245 32.6984 174.013 32.1287 173.549 31.6785C173.111 31.2282 172.556 30.8575 171.886 30.5657C171.24 30.2747 170.312 29.9431 169.1 29.5725C167.346 29.0166 165.915 28.4599 164.806 27.9039C163.697 27.3471 162.743 26.5262 161.943 25.4405C161.144 24.3546 160.744 22.9372 160.744 21.189C160.744 18.593 161.66 16.5668 163.49 15.1102C165.321 13.6268 167.707 12.8848 170.648 12.8848C173.639 12.8848 176.05 13.6268 177.881 15.1102C179.712 16.5668 180.693 18.6068 180.822 21.2288H173.665C173.614 20.3281 173.291 19.626 172.697 19.1229C172.104 18.593 171.344 18.3281 170.415 18.3281C169.616 18.3281 168.971 18.5531 168.481 19.0042C167.991 19.4277 167.746 20.0502 167.746 20.8712C167.746 21.7716 168.158 22.4739 168.984 22.9768C169.809 23.4801 171.099 24.0231 172.852 24.6058C174.606 25.2153 176.024 25.798 177.107 26.354C178.217 26.9108 179.171 27.7186 179.97 28.7776C180.77 29.8376 181.17 31.2012 181.17 32.8707C181.17 34.4597 180.77 35.9032 179.97 37.2012C179.196 38.4991 178.062 39.532 176.566 40.3002C175.071 41.0683 173.304 41.4527 171.266 41.4527Z" fill="#1D1D1D"></path>
  <path d="M208.258 13.2832V18.7261H201.062V41.1755H194.446V18.7261H187.252V13.2832H208.258Z" fill="#1D1D1D"></path>
</svg>
