<?xml version="1.0" encoding="UTF-8"?>
<svg xmlns="http://www.w3.org/2000/svg" xmlns:xlink="http://www.w3.org/1999/xlink" width="305px" height="97px" viewBox="0 0 305 97" version="1.1">
  <title>logo-ptwee-simple</title>
  <g id="Page-1" stroke="none" stroke-width="1" fill="none" fill-rule="evenodd">
    <g id="logo-ptwee-simple" transform="translate(0.911, 0.0839)" fill-rule="nonzero">
      <path d="M286.75,12.42529 L289.086,12.42529 C290.258,12.42529 291.089,12.27069 291.586,11.96399 C292.077,11.65599 292.325,11.15069 292.325,10.45469 C292.325,9.82669 292.081,9.35729 291.594,9.04269 C291.105,8.72929 290.368,8.57199 289.382,8.57199 L286.75,8.57199 L286.75,12.42529 Z M283.893,20.47599 L283.893,6.30799 L290.601,6.30799 C292.261,6.30799 293.469,6.69599 294.226,7.46669 C294.978,8.23999 295.36,9.19069 295.36,10.31469 C295.36,11.40669 295.04,12.28669 294.406,12.94799 C293.774,13.60929 292.82,14.05599 291.542,14.28929 C292.122,14.50929 292.584,14.80929 292.928,15.18669 C293.268,15.56399 293.812,16.38129 294.556,17.63599 L296.212,20.47599 L292.672,20.47599 L291.49,18.19329 C290.78,16.83329 290.157,15.90799 289.616,15.41329 C289.076,14.91999 288.369,14.67469 287.498,14.67469 L286.75,14.67469 L286.75,20.47599 L283.893,20.47599 Z M290.08,2.59734 C286.802,2.59734 284.145,3.67734 282.116,5.83729 C280.08,7.99869 279.066,10.50269 279.066,13.34799 C279.066,16.29999 280.116,18.82669 282.218,20.92799 C284.32,23.03329 286.846,24.08269 289.796,24.08269 C292.737,24.08269 295.26,23.03329 297.361,20.92799 C299.466,18.82669 300.516,16.29999 300.516,13.34799 C300.516,11.31469 299.985,9.44269 298.93,7.72799 C297.873,6.01469 296.513,4.73067 294.852,3.876 C293.19,3.02267 291.6,2.59734 290.08,2.59734 Z M289.416,0 C293.4,0 296.678,1.324 299.256,3.97334 C301.825,6.62129 303.112,9.74799 303.112,13.34799 C303.112,17.01999 301.804,20.16269 299.192,22.77469 C296.578,25.39069 293.433,26.69729 289.765,26.69729 C286.072,26.69729 282.922,25.39329 280.318,22.78529 C277.717,20.17729 276.416,17.03069 276.416,13.34799 C276.416,10.75869 277.104,8.37999 278.478,6.21199 C279.86,4.04534 281.58,2.46667 283.648,1.48001 C285.717,0.49334 287.638,0 289.416,0 Z" id="Shape" fill="#022B3D"></path>
      <path d="M0,14.35199 L21.5428,14.35199 C27.3688,14.35199 31.8399,14.80929 34.9562,15.72389 C38.1063,16.63839 40.4605,17.95939 42.0186,19.68689 C43.6106,21.41439 44.6776,23.51449 45.2195,25.98719 C45.7953,28.42599 46.0833,32.21969 46.0833,37.36829 L46.0833,44.53219 C46.0833,49.78249 45.5413,53.60999 44.4574,56.01499 C43.3735,58.41989 41.375,60.26589 38.462,61.55309 C35.5828,62.84019 31.8061,63.48379 27.1317,63.48379 L21.3903,63.48379 L21.3903,96.61109 L0,96.61109 L0,14.35199 Z M21.3903,28.42599 L21.3903,49.35909 C22,49.39289 22.5251,49.40989 22.9654,49.40989 C24.93,49.40989 26.2849,48.93559 27.0301,47.98719 C27.8091,47.00489 28.1987,44.98949 28.1987,41.94099 L28.1987,35.18349 C28.1987,32.37209 27.7583,30.54299 26.8777,29.69619 C25.997,28.84939 24.1679,28.42599 21.3903,28.42599 Z" id="Shape" fill="#DC2627"></path>
      <path d="M95.317,14.35199 L95.317,30.81399 L82.6145,30.81399 L82.6145,96.61109 L61.2242,96.61109 L61.2242,30.81399 L48.5729,30.81399 L48.5729,14.35199 L95.317,14.35199 Z M180.675,14.35199 L171.174,96.61109 L144.448,96.61109 C142.01,83.97659 139.859,69.61469 137.996,53.52529 C137.149,60.40139 135.167,74.76329 132.051,96.61109 L105.478,96.61109 L95.926,14.35199 L116.707,14.35199 L118.892,43.05879 L121.127,70.74939 C121.906,56.42139 123.871,37.62229 127.021,14.35199 L149.275,14.35199 C149.58,16.75699 150.359,25.80089 151.612,41.48369 L153.95,72.73089 C155.135,52.84789 157.117,33.38829 159.894,14.35199 L180.675,14.35199 Z M184.943,14.35199 L220.61,14.35199 L220.61,30.81399 L206.333,30.81399 L206.333,46.41219 L219.696,46.41219 L219.696,62.06119 L206.333,62.06119 L206.333,80.14899 L222.033,80.14899 L222.033,96.61109 L184.943,96.61109 L184.943,14.35199 Z M228.232,14.35199 L263.899,14.35199 L263.899,30.81399 L249.622,30.81399 L249.622,46.41219 L262.985,46.41219 L262.985,62.06119 L249.622,62.06119 L249.622,80.14899 L265.322,80.14899 L265.322,96.61109 L228.232,96.61109 L228.232,14.35199 Z" id="Shape" fill="#1F90CF"></path>
    </g>
  </g>
</svg>
