<?xml version="1.0" encoding="UTF-8"?>
<svg xmlns="http://www.w3.org/2000/svg" width="165" height="45" viewBox="0 0 165 45" fill="none">
  <path d="M23.0742 7.47314V1.02539H41.3026V7.47314H35.3327V43.9299H29.0441V7.47314H23.0742Z" fill="#1A1818"></path>
  <path d="M45.2031 1.02539H59.6109V7.47308H51.4912V18.6964H57.3025V25.6219H51.4912V37.4026H59.6109V43.8502H45.2031V1.02539Z" fill="#1A1818"></path>
  <path d="M75.0532 12.4881C75.1328 11.0553 74.9737 9.62246 74.5755 8.26913C74.1778 7.07552 73.5409 6.27895 72.5058 6.27895C70.9139 6.35916 70.3565 8.0306 70.3565 10.5774C70.5162 12.2495 70.9934 13.8413 71.949 15.1946C72.904 16.7865 74.0982 18.5374 75.3714 20.3686C76.8042 22.4383 78.1575 24.6671 79.4312 26.8957C80.5459 28.9655 81.2623 31.2738 81.3413 33.5821C81.3413 36.4477 80.8641 39.1543 79.5108 41.1444C78.1575 43.1339 76.0083 44.4077 72.5853 44.4077C68.526 44.4077 66.2973 42.8954 65.0235 40.5871C63.7498 38.2788 63.4316 35.1739 63.4316 31.9106L69.6401 31.3532C69.5606 33.0247 69.7202 34.6967 70.1975 36.2887C70.5957 37.7215 71.3121 38.597 72.6654 38.597C74.5755 38.597 75.2123 36.6069 75.2123 33.9008C75.0532 32.2288 74.4959 30.5573 73.6204 29.2041C73.0631 28.4082 72.5853 27.5327 72.0285 26.6572C70.8343 24.9056 69.4811 22.9155 68.0482 20.7662C66.695 18.6971 65.6604 16.4677 64.944 14.08C64.6253 12.9659 64.3867 11.7716 64.3867 10.6576C64.3071 8.26913 64.944 5.88131 66.2973 3.8912C67.7301 1.82144 70.1179 0.627893 72.6654 0.627893C76.4861 0.547754 78.7148 2.14016 79.9085 4.44845C81.0231 6.83633 81.5805 9.38381 81.5009 12.0102L75.0532 12.4881Z" fill="#1A1818"></path>
  <path d="M83.8887 7.47314V1.02539H102.117V7.47314H96.1472V43.9299H89.8586V7.47314H83.8887Z" fill="#1A1818"></path>
  <path d="M106.018 1.02539H120.425V7.47308H112.306V18.6964H118.117V25.6219H112.306V37.4026H120.425V43.8502H106.018V1.02539Z" fill="#1A1818"></path>
  <path d="M136.663 43.9298L133.399 25.8606H131.727V44.0095H125.439V1.02539H131.727C139.29 1.02539 142.474 5.32385 142.474 13.443C142.474 17.7414 141.359 21.5621 138.971 23.2336L143.031 44.0095H136.663V43.9298ZM131.727 19.9702C132.763 20.0498 133.877 19.7316 134.673 19.0152C135.628 18.2187 136.344 16.6268 136.344 13.6021C136.344 10.5773 135.548 8.90594 134.673 8.10938C133.797 7.47321 132.763 7.15442 131.727 7.23395V19.9702Z" fill="#1A1818"></path>
  <path d="M164.682 33.5827C164.682 36.4482 164.204 39.1542 162.851 41.1444C161.498 43.1345 159.349 44.4083 155.926 44.4083C151.866 44.4083 149.637 42.8959 148.364 40.587C147.09 38.2788 146.771 35.1745 146.771 31.9112L152.981 31.3539C152.901 33.0253 153.06 34.6967 153.538 36.2892C153.936 37.722 154.652 38.5975 156.005 38.5975C157.916 38.5975 158.553 36.6073 158.553 33.9008C158.394 32.2293 157.836 30.5578 156.961 29.2046C156.404 28.4087 155.926 27.5333 155.368 26.6572C154.174 24.9062 152.821 22.916 151.389 20.7668C150.035 18.6971 149 16.4683 148.284 14.0804C147.966 12.9659 147.727 11.7721 147.727 10.6576C147.648 8.26964 148.284 5.88188 149.637 3.89171C151.07 1.82201 153.458 0.627855 156.005 0.627855C159.826 0.548266 162.055 2.14012 163.249 4.44902C164.364 6.8369 164.92 9.38378 164.841 12.0109L158.394 12.4886C158.473 11.0558 158.314 9.62297 157.916 8.26964C157.518 7.07549 156.881 6.27953 155.846 6.27953C154.254 6.35912 153.697 8.03111 153.697 10.578C153.856 12.2494 154.334 13.8413 155.289 15.1952C156.244 16.7871 157.438 18.538 158.712 20.3692C160.145 22.4382 161.498 24.6675 162.771 26.8963C163.886 28.9661 164.602 31.2742 164.682 33.5827Z" fill="#1A1818"></path>
  <path d="M23.0732 43.9311H0.466797V40.5877C0.466797 36.6875 1.10367 34.5382 2.77567 33.4235C4.4471 32.3094 7.31274 32.1504 11.7703 32.1504C16.2278 32.1504 19.0139 32.3094 20.6848 33.4235C22.3573 34.5382 22.9936 36.6875 22.9936 40.5877L23.0732 43.9311ZM19.7303 39.7121C19.7303 38.2794 19.6508 37.4038 18.5361 37.0056C17.7402 36.767 16.9442 36.6079 16.1483 36.6079H7.39228C6.59633 36.6079 5.80038 36.767 5.00444 37.0056C3.88977 37.4038 3.81023 38.2794 3.81023 39.7121H19.7303Z" fill="#006A7B"></path>
  <path d="M0.466797 28.4088V18.7773H3.88977V24.1899H9.78011V20.2897H13.4417V24.1899H19.5707V18.7773H22.9936V28.4088H0.466797Z" fill="#006A7B"></path>
</svg>
