<?xml version="1.0" encoding="UTF-8"?>
<svg xmlns="http://www.w3.org/2000/svg" width="175" height="47" viewBox="0 0 175 47" fill="none">
  <path d="M13.9029 46.0907C7.81999 46.0907 0.722656 44.6542 0.722656 44.6542V0.890625H9.42492V14.9156C9.42492 14.9156 12.4664 11.9587 17.0288 11.9587C21.5907 11.9587 29.2791 13.31 29.2791 28.856C29.1946 44.5703 19.9012 46.0907 13.9029 46.0907ZM14.6631 18.8863C11.5371 18.8863 9.42492 21.083 9.42492 21.083V40.0924H14.1558C17.2824 40.0924 20.5768 38.1493 20.5768 28.856C20.5768 19.309 18.7183 18.8863 14.6631 18.8863Z" fill="#3121AD"></path>
  <path d="M50.4017 46.0905L49.4724 42.6264C49.4724 42.6264 46.2619 46.175 40.6011 46.175C36.5459 46.175 31.3077 44.4856 31.3077 35.6142C31.3077 26.659 38.658 25.0535 43.558 25.0535H49.2188V22.6877C49.2188 19.4778 47.5294 19.0551 44.5718 19.0551C39.9254 19.0551 16.3535 18.886 16.3535 18.886L17.1989 12.043C17.1989 12.043 39.9254 12.1269 46.0929 12.1269C52.5139 12.1269 57.9211 13.7324 57.9211 22.7722V46.175H50.4017V46.0905ZM49.3034 29.785L46.8531 29.8695C41.9531 29.9541 40.01 31.1363 40.01 35.3606C40.01 38.7402 41.5304 39.6695 43.8116 39.6695C46.8531 39.6695 49.3034 38.0646 49.3034 38.0646V29.785ZM72.3681 19.9844C70.425 19.9844 68.1437 21.1673 68.1437 21.1673V46.0905H59.4415V12.6341H66.3697L67.4681 15.9291C67.4681 15.9291 69.5802 12.043 73.6355 12.043H81.6614V19.9844H72.3681Z" fill="#3121AD"></path>
  <path d="M101.346 45.9225C101.346 45.9225 93.1505 46.007 89.0952 46.007C84.6173 46.007 80.6466 44.9087 80.6466 37.1357V18.4644H75.0703V12.6351H80.6466L80.7311 12.0434L81.3223 5.3694L89.3482 2.75V12.6351H96.783L95.9383 18.4644L89.3482 19.9854V37.0512C89.3482 38.9104 90.362 39.1633 91.4604 39.1633" fill="#3121AD"></path>
  <path d="M136.491 46.0912H89.2637V39.2481C89.2637 39.2481 133.45 39.1636 135.984 39.1636C138.773 39.1636 140.8 38.5718 140.8 36.206C140.8 34.1784 138.857 33.4182 136.491 32.5735L133.872 31.6442C130.493 30.4613 126.606 28.0955 126.606 22.2663C126.606 14.1551 132.858 12.043 139.364 12.043C144.011 12.043 150.009 12.4657 150.009 12.4657L150.601 18.464C143.926 18.1265 143.504 18.5485 139.702 18.5485C136.322 18.5485 134.97 19.6469 134.97 21.6745C134.97 23.6176 137.083 24.3784 139.533 25.3077L142.659 26.4906C146.038 27.7574 149.164 30.2922 149.164 35.6149C149.333 44.8237 142.659 46.0912 136.491 46.0912Z" fill="#3121AD"></path>
  <path d="M174.172 46.0902H149.925V40.1764L164.202 18.7166L134.97 18.6321L137.421 12.1272H174.425V18.041L159.809 39.5001H174.594L174.172 46.0902ZM109.878 45.8366C103.288 45.8366 94.9238 43.4715 94.9238 28.8554C94.9238 14.5769 103.035 11.7891 109.878 11.7891C116.721 11.7891 124.832 14.0703 124.832 28.8554C124.832 43.7244 116.468 45.8366 109.878 45.8366ZM109.878 17.9565C106.498 17.9565 103.542 19.0548 103.542 28.8554C103.542 38.4863 107.09 39.6692 109.878 39.6692C112.666 39.6692 116.215 38.5708 116.215 28.8554C116.215 18.7166 113.258 17.9565 109.878 17.9565Z" fill="#3121AD"></path>
</svg>
